<mxfile host="app.diagrams.net" modified="2022-10-24T21:02:52.350Z" agent="5.0 (Macintosh; Intel Mac OS X 10_15_7) AppleWebKit/537.36 (KHTML, like Gecko) Chrome/106.0.0.0 Safari/537.36" etag="6UH7_X5fi3N23gHC68VT" version="20.4.0" type="github">
  <diagram id="d8DhH_ucDHLnBKmJKFJP" name="第 1 页">
    <mxGraphModel dx="946" dy="589" grid="1" gridSize="10" guides="1" tooltips="1" connect="1" arrows="1" fold="1" page="1" pageScale="1" pageWidth="827" pageHeight="1169" math="0" shadow="0">
      <root>
        <mxCell id="0" />
        <mxCell id="1" parent="0" />
        <mxCell id="AbogAQiTV6rJuzgbCe0p-2" value="a" style="ellipse;whiteSpace=wrap;html=1;" vertex="1" parent="1">
          <mxGeometry x="50" y="100" width="50" height="50" as="geometry" />
        </mxCell>
        <mxCell id="AbogAQiTV6rJuzgbCe0p-4" value="c" style="ellipse;whiteSpace=wrap;html=1;" vertex="1" parent="1">
          <mxGeometry x="570" y="440" width="50" height="50" as="geometry" />
        </mxCell>
        <mxCell id="AbogAQiTV6rJuzgbCe0p-5" value="{a, b}" style="ellipse;whiteSpace=wrap;html=1;" vertex="1" parent="1">
          <mxGeometry x="360" y="350" width="50" height="50" as="geometry" />
        </mxCell>
        <mxCell id="AbogAQiTV6rJuzgbCe0p-6" value="{b, c}" style="ellipse;whiteSpace=wrap;html=1;" vertex="1" parent="1">
          <mxGeometry x="230" y="535" width="50" height="50" as="geometry" />
        </mxCell>
        <mxCell id="AbogAQiTV6rJuzgbCe0p-7" value="{a, c}&amp;nbsp;" style="ellipse;whiteSpace=wrap;html=1;" vertex="1" parent="1">
          <mxGeometry x="690" y="450" width="50" height="50" as="geometry" />
        </mxCell>
        <mxCell id="AbogAQiTV6rJuzgbCe0p-9" value="" style="curved=1;endArrow=classic;html=1;rounded=0;exitX=1;exitY=0.5;exitDx=0;exitDy=0;entryX=0;entryY=0.5;entryDx=0;entryDy=0;" edge="1" parent="1" source="AbogAQiTV6rJuzgbCe0p-2" target="AbogAQiTV6rJuzgbCe0p-3">
          <mxGeometry width="50" height="50" relative="1" as="geometry">
            <mxPoint x="390" y="290" as="sourcePoint" />
            <mxPoint x="390" y="340" as="targetPoint" />
            <Array as="points">
              <mxPoint x="330" y="90" />
              <mxPoint x="430" y="100" />
            </Array>
          </mxGeometry>
        </mxCell>
        <mxCell id="AbogAQiTV6rJuzgbCe0p-11" value="" style="curved=1;endArrow=classic;html=1;rounded=0;exitX=1;exitY=0.5;exitDx=0;exitDy=0;entryX=0;entryY=0.5;entryDx=0;entryDy=0;" edge="1" parent="1" source="AbogAQiTV6rJuzgbCe0p-3" target="AbogAQiTV6rJuzgbCe0p-4">
          <mxGeometry width="50" height="50" relative="1" as="geometry">
            <mxPoint x="560" y="350" as="sourcePoint" />
            <mxPoint x="610" y="300" as="targetPoint" />
            <Array as="points">
              <mxPoint x="540" y="260" />
            </Array>
          </mxGeometry>
        </mxCell>
        <mxCell id="AbogAQiTV6rJuzgbCe0p-13" value="" style="curved=1;endArrow=classic;html=1;rounded=0;exitX=1;exitY=1;exitDx=0;exitDy=0;entryX=0;entryY=1;entryDx=0;entryDy=0;startArrow=none;" edge="1" parent="1" source="AbogAQiTV6rJuzgbCe0p-3" target="AbogAQiTV6rJuzgbCe0p-4">
          <mxGeometry width="50" height="50" relative="1" as="geometry">
            <mxPoint x="410" y="370" as="sourcePoint" />
            <mxPoint x="460" y="320" as="targetPoint" />
            <Array as="points">
              <mxPoint x="390" y="310" />
            </Array>
          </mxGeometry>
        </mxCell>
        <mxCell id="AbogAQiTV6rJuzgbCe0p-14" value="" style="curved=1;endArrow=classic;html=1;rounded=0;exitX=1;exitY=1;exitDx=0;exitDy=0;entryX=0.2;entryY=0;entryDx=0;entryDy=0;entryPerimeter=0;" edge="1" parent="1" source="AbogAQiTV6rJuzgbCe0p-2" target="AbogAQiTV6rJuzgbCe0p-4">
          <mxGeometry width="50" height="50" relative="1" as="geometry">
            <mxPoint x="440" y="210" as="sourcePoint" />
            <mxPoint x="490" y="160" as="targetPoint" />
            <Array as="points">
              <mxPoint x="210" y="230" />
              <mxPoint x="430" y="210" />
              <mxPoint x="250" y="260" />
              <mxPoint x="290" y="290" />
              <mxPoint x="370" y="320" />
            </Array>
          </mxGeometry>
        </mxCell>
        <mxCell id="AbogAQiTV6rJuzgbCe0p-15" value="" style="curved=1;endArrow=classic;html=1;rounded=0;exitX=0.72;exitY=0.94;exitDx=0;exitDy=0;exitPerimeter=0;entryX=0;entryY=1;entryDx=0;entryDy=0;" edge="1" parent="1" source="AbogAQiTV6rJuzgbCe0p-5" target="AbogAQiTV6rJuzgbCe0p-7">
          <mxGeometry width="50" height="50" relative="1" as="geometry">
            <mxPoint x="330" y="510" as="sourcePoint" />
            <mxPoint x="380" y="460" as="targetPoint" />
            <Array as="points">
              <mxPoint x="320" y="490" />
              <mxPoint x="470" y="500" />
            </Array>
          </mxGeometry>
        </mxCell>
        <mxCell id="AbogAQiTV6rJuzgbCe0p-16" value="" style="curved=1;endArrow=classic;html=1;rounded=0;exitX=0.02;exitY=0.72;exitDx=0;exitDy=0;entryX=0;entryY=0.5;entryDx=0;entryDy=0;exitPerimeter=0;" edge="1" parent="1" source="AbogAQiTV6rJuzgbCe0p-5" target="AbogAQiTV6rJuzgbCe0p-6">
          <mxGeometry width="50" height="50" relative="1" as="geometry">
            <mxPoint x="350" y="450" as="sourcePoint" />
            <mxPoint x="400" y="400" as="targetPoint" />
            <Array as="points">
              <mxPoint x="330" y="410" />
              <mxPoint x="350" y="400" />
            </Array>
          </mxGeometry>
        </mxCell>
        <mxCell id="AbogAQiTV6rJuzgbCe0p-17" value="" style="curved=1;endArrow=classic;html=1;rounded=0;entryX=0.68;entryY=1;entryDx=0;entryDy=0;exitX=1;exitY=0.5;exitDx=0;exitDy=0;entryPerimeter=0;" edge="1" parent="1" source="AbogAQiTV6rJuzgbCe0p-6" target="AbogAQiTV6rJuzgbCe0p-7">
          <mxGeometry width="50" height="50" relative="1" as="geometry">
            <mxPoint x="510" y="450" as="sourcePoint" />
            <mxPoint x="560" y="400" as="targetPoint" />
            <Array as="points">
              <mxPoint x="520" y="570" />
            </Array>
          </mxGeometry>
        </mxCell>
        <mxCell id="AbogAQiTV6rJuzgbCe0p-18" value="" style="curved=1;endArrow=classic;html=1;rounded=0;entryX=0.5;entryY=1;entryDx=0;entryDy=0;exitX=1;exitY=0;exitDx=0;exitDy=0;" edge="1" parent="1" source="AbogAQiTV6rJuzgbCe0p-5" target="AbogAQiTV6rJuzgbCe0p-4">
          <mxGeometry width="50" height="50" relative="1" as="geometry">
            <mxPoint x="380" y="410" as="sourcePoint" />
            <mxPoint x="430" y="360" as="targetPoint" />
            <Array as="points">
              <mxPoint x="450" y="420" />
              <mxPoint x="470" y="450" />
            </Array>
          </mxGeometry>
        </mxCell>
        <mxCell id="AbogAQiTV6rJuzgbCe0p-19" value="" style="curved=1;endArrow=classic;html=1;rounded=0;entryX=0;entryY=0;entryDx=0;entryDy=0;exitX=0.5;exitY=1;exitDx=0;exitDy=0;" edge="1" parent="1" source="AbogAQiTV6rJuzgbCe0p-2" target="AbogAQiTV6rJuzgbCe0p-6">
          <mxGeometry width="50" height="50" relative="1" as="geometry">
            <mxPoint x="200" y="390" as="sourcePoint" />
            <mxPoint x="250" y="340" as="targetPoint" />
            <Array as="points">
              <mxPoint x="310" y="340" />
              <mxPoint x="300" y="350" />
            </Array>
          </mxGeometry>
        </mxCell>
        <mxCell id="AbogAQiTV6rJuzgbCe0p-20" value="" style="curved=1;endArrow=classic;html=1;rounded=0;exitX=1;exitY=1;exitDx=0;exitDy=0;entryX=0;entryY=0;entryDx=0;entryDy=0;" edge="1" parent="1" source="AbogAQiTV6rJuzgbCe0p-3" target="AbogAQiTV6rJuzgbCe0p-7">
          <mxGeometry width="50" height="50" relative="1" as="geometry">
            <mxPoint x="520" y="420" as="sourcePoint" />
            <mxPoint x="600" y="380" as="targetPoint" />
            <Array as="points">
              <mxPoint x="520" y="370" />
            </Array>
          </mxGeometry>
        </mxCell>
        <mxCell id="AbogAQiTV6rJuzgbCe0p-3" value="b" style="ellipse;whiteSpace=wrap;html=1;" vertex="1" parent="1">
          <mxGeometry x="430" y="200" width="50" height="50" as="geometry" />
        </mxCell>
        <mxCell id="AbogAQiTV6rJuzgbCe0p-21" value="" style="curved=1;endArrow=none;html=1;rounded=0;exitX=1;exitY=1;exitDx=0;exitDy=0;entryX=0;entryY=1;entryDx=0;entryDy=0;" edge="1" parent="1" source="AbogAQiTV6rJuzgbCe0p-2" target="AbogAQiTV6rJuzgbCe0p-3">
          <mxGeometry width="50" height="50" relative="1" as="geometry">
            <mxPoint x="92.67766952966372" y="142.67766952966372" as="sourcePoint" />
            <mxPoint x="627.3223304703363" y="252.67766952966372" as="targetPoint" />
            <Array as="points">
              <mxPoint x="420" y="150" />
            </Array>
          </mxGeometry>
        </mxCell>
      </root>
    </mxGraphModel>
  </diagram>
</mxfile>
